
<svg id="Capa_2" data-name="Capa 2" xmlns="http://www.w3.org/2000/svg" viewBox="0 0 351.11 300.1">
  <g id="Capa_2-2" data-name="Capa 2">
    <path d="M207.99,31.5v3.64c-1.73.56-3.58.86-5.5.86-2.68,0-5.22-.59-7.5-1.64v-2.86c0-2.21,1.79-4,4-4h5c.37,0,.74.05,1.08.15h.01c1.68.48,2.91,2.02,2.91,3.85Z"/>
    <path d="M256.49,55.11v2.45c-1.4.35-2.87.54-4.38.54-2.45,0-4.78-.49-6.91-1.38l.04-1.71c.06-2.17,1.83-3.9,4-3.9h3.25c2.21,0,4,1.79,4,4Z"/>
    <path d="M289.43,93.3c-1.68.52-3.47.8-5.32.8-2.61,0-5.09-.56-7.33-1.57.58-1.49,2.02-2.53,3.71-2.53h5c1.97,0,3.6,1.42,3.94,3.3Z"/>
    <path d="M316.04,131.79l-.52.72c-3.89-1.02-7.27-3.32-9.65-6.41l.02-.02c.97-1.26,2.6-1.83,4.14-1.44l3.74.93c2.74.68,3.92,3.92,2.27,6.22Z"/>
    <path d="M319.58,215.25l-.04,2.81c-.03,2.18-1.81,3.94-3.99,3.94h-2.45c-.64-1.85-.99-3.83-.99-5.9,0-1.7.24-3.35.69-4.91h2.78c2.23,0,4.03,1.82,4,4.06Z"/>
    <path d="M319.64,153.71v4.57c0,1.75-1.12,3.23-2.68,3.77-1.18-2.39-1.85-5.09-1.85-7.95,0-1.51.19-2.98.54-4.39,2.2,0,3.99,1.79,3.99,4Z"/>
    <path d="M202.49,0c-9.94,0-18,8.06-18,18,0,7.26,4.3,13.52,10.5,16.36,2.28,1.05,4.82,1.64,7.5,1.64,1.92,0,3.77-.3,5.5-.86,7.25-2.32,12.5-9.12,12.5-17.14,0-9.94-8.06-18-18-18ZM205.08,27.65h-.01c-.83.23-1.68.35-2.58.35-1.09,0-2.14-.17-3.12-.5-3.99-1.31-6.88-5.07-6.88-9.5,0-5.52,4.48-10,10-10s10,4.48,10,10c0,4.62-3.14,8.52-7.41,9.65Z"/>
    <path d="M252.11,22.1c-9.94,0-18,8.06-18,18,0,7.49,4.58,13.92,11.09,16.62,2.13.89,4.46,1.38,6.91,1.38,1.51,0,2.98-.19,4.38-.54,7.82-1.95,13.62-9.03,13.62-17.46,0-9.94-8.06-18-18-18ZM252.11,50.1c-5.52,0-10-4.48-10-10s4.48-10,10-10,10,4.48,10,10-4.48,10-10,10Z"/>
    <path d="M284.11,58.1c-9.94,0-18,8.06-18,18,0,7.33,4.38,13.64,10.67,16.43,2.24,1.01,4.72,1.57,7.33,1.57,1.85,0,3.64-.28,5.32-.8,7.34-2.27,12.68-9.11,12.68-17.2,0-9.94-8.06-18-18-18ZM284.11,86.1c-5.52,0-10-4.48-10-10s4.48-10,10-10,10,4.48,10,10-4.48,10-10,10Z"/>
    <path d="M313.11,97.1c-9.94,0-18,8.06-18,18,0,4.14,1.4,7.96,3.76,11,2.38,3.09,5.76,5.39,9.65,6.41,1.47.38,3,.59,4.59.59,9.94,0,18-8.06,18-18s-8.06-18-18-18ZM313.11,125.1c-5.52,0-10-4.48-10-10s4.48-10,10-10,10,4.48,10,10-4.48,10-10,10Z"/>
    <path d="M333.11,136.1c-8.43,0-15.5,5.79-17.46,13.61-.35,1.41-.54,2.88-.54,4.39,0,2.86.67,5.56,1.85,7.95,2.94,5.96,9.07,10.05,16.15,10.05,9.94,0,18-8.06,18-18s-8.06-18-18-18ZM333.11,164.1c-5.52,0-10-4.48-10-10s4.48-10,10-10,10,4.48,10,10-4.48,10-10,10Z"/>
    <path d="M330.11,198.1c-8.24,0-15.18,5.53-17.31,13.09-.45,1.56-.69,3.21-.69,4.91,0,2.07.35,4.05.99,5.9,2.44,7.04,9.14,12.1,17.01,12.1,9.94,0,18-8.06,18-18s-8.06-18-18-18ZM330.11,226.1c-5.52,0-10-4.48-10-10s4.48-10,10-10,10,4.48,10,10-4.48,10-10,10Z"/>
    <path d="M315.11,264.1c-.97,0-1.93.08-2.86.23l-10.57-11.98c-.76-.86-1.85-1.35-3-1.35h-3.63c-2.24,0-4.04-1.83-4-4.07l.37-21c.04-2.18,1.82-3.93,4-3.93h17.68c-.64-1.85-.99-3.83-.99-5.9,0-1.7.24-3.35.69-4.91h-29.74c-2.21,0-4,1.79-4,4v31.81c0,2.21-1.79,4-4,4h-33.42c-3.63,0-5.38-4.46-2.72-6.93l47.29-43.88c.82-.76,1.28-1.82,1.28-2.94v-30.97c0-2.21,1.79-4,4-4h24.15c.47,0,.91-.08,1.32-.23-1.18-2.39-1.85-5.09-1.85-7.95,0-1.51.19-2.98.54-4.39h-.04l-4.66.03c-3.27.03-5.19-3.68-3.27-6.33l7.84-10.9c-3.89-1.02-7.27-3.32-9.65-6.41l-17.1,22.26c-.75.98-1.91,1.56-3.14,1.56l-6.17.05c-2.2.02-3.97,1.8-3.97,4v35.29c0,1.11-.46,2.17-1.28,2.93l-72.5,67.44c-2.55,2.38-6.72.56-6.72-2.93v-14.47c0-1.08.43-2.1,1.19-2.86l59.07-58.15c.79-.78,1.22-1.85,1.2-2.96l-.92-35.51c-.02-1.11.42-2.19,1.22-2.97l31.53-30.6c.77-.75,1.21-1.79,1.21-2.87v-12.31c0-.24-.02-.47-.06-.7-1.68.52-3.47.8-5.32.8-2.61,0-5.09-.56-7.33-1.57-.19.45-.29.95-.29,1.47v9.31c0,1.08-.44,2.12-1.22,2.87l-29.56,28.64c-.78.75-1.22,1.79-1.22,2.87v36.54c0,1.13-.48,2.2-1.31,2.96l-41.5,37.73c-2.57,2.33-6.69.51-6.69-2.96v-36.61c0-2.07,1.58-3.8,3.65-3.98l23.2-2.05c2.07-.18,3.65-1.91,3.65-3.98v-48.36c0-1.33.66-2.58,1.77-3.32l27.46-18.47c1.11-.74,1.77-1.99,1.77-3.32v-34.31c-1.4.35-2.87.54-4.38.54-2.45,0-4.78-.49-6.91-1.38l-.66,27.18c-.03,1.32-.71,2.53-1.8,3.25l-28.44,18.67c-1.13.73-1.81,1.99-1.81,3.34v43.2c0,2.07-1.57,3.79-3.62,3.99l-9.5.9c-2.35.23-4.38-1.62-4.38-3.98v-54.6c0-1.03.4-2.03,1.11-2.77l10.78-11.24c.71-.74,1.11-1.74,1.11-2.77v-46.75c-1.73.56-3.58.86-5.5.86-2.68,0-5.22-.59-7.5-1.64v43.42c0,.96-.34,1.89-.97,2.62l-12.05,13.96c-.63.74-.98,1.67-.97,2.64l1.5,190h12.49v-.43c0-1.12.46-2.18,1.28-2.94l21.09-19.56c.74-.69,1.71-1.07,2.72-1.07h72.55c1.18,0,2.3.52,3.06,1.42l5.41,6.39c-2.49,3.09-3.99,7.01-3.99,11.29,0,9.94,8.06,18,18,18s18-8.06,18-18-8.06-18-18-18ZM315.11,292.1c-5.52,0-10-4.48-10-10s4.48-10,10-10,10,4.48,10,10-4.48,10-10,10Z"/>
    <path d="M143.12,31.5v3.64c1.73.56,3.58.86,5.5.86,2.68,0,5.22-.59,7.5-1.64v-2.86c0-2.21-1.79-4-4-4h-5c-.37,0-.74.05-1.08.15h-.01c-1.68.48-2.91,2.02-2.91,3.85Z"/>
    <path d="M94.62,55.11v2.45c1.4.35,2.87.54,4.38.54,2.45,0,4.78-.49,6.91-1.38l-.04-1.71c-.06-2.17-1.83-3.9-4-3.9h-3.25c-2.21,0-4,1.79-4,4Z"/>
    <path d="M61.68,93.3c1.68.52,3.47.8,5.32.8,2.61,0,5.09-.56,7.33-1.57-.58-1.49-2.02-2.53-3.71-2.53h-5c-1.97,0-3.6,1.42-3.94,3.3Z"/>
    <path d="M35.07,131.79l.52.72c3.89-1.02,7.27-3.32,9.65-6.41l-.02-.02c-.97-1.26-2.6-1.83-4.14-1.44l-3.74.93c-2.74.68-3.92,3.92-2.27,6.22Z"/>
    <path d="M31.53,215.25l.04,2.81c.03,2.18,1.81,3.94,3.99,3.94h2.45c.64-1.85.99-3.83.99-5.9,0-1.7-.24-3.35-.69-4.91h-2.78c-2.23,0-4.03,1.82-4,4.06Z"/>
    <path d="M31.47,153.71v4.57c0,1.75,1.12,3.23,2.68,3.77,1.18-2.39,1.85-5.09,1.85-7.95,0-1.51-.19-2.98-.54-4.39-2.2,0-3.99,1.79-3.99,4Z"/>
    <path d="M130.62,18c0,8.02,5.25,14.82,12.5,17.14,1.73.56,3.58.86,5.5.86,2.68,0,5.22-.59,7.5-1.64,6.2-2.84,10.5-9.1,10.5-16.36C166.62,8.06,158.56,0,148.62,0s-18,8.06-18,18ZM138.62,18c0-5.52,4.48-10,10-10s10,4.48,10,10c0,4.43-2.89,8.19-6.88,9.5-.98.33-2.03.5-3.12.5-.9,0-1.75-.12-2.58-.35h-.01c-4.27-1.13-7.41-5.03-7.41-9.65Z"/>
    <path d="M81,40.1c0,8.43,5.8,15.51,13.62,17.46,1.4.35,2.87.54,4.38.54,2.45,0,4.78-.49,6.91-1.38,6.51-2.7,11.09-9.13,11.09-16.62,0-9.94-8.06-18-18-18s-18,8.06-18,18ZM89,40.1c0-5.52,4.48-10,10-10s10,4.48,10,10-4.48,10-10,10-10-4.48-10-10Z"/>
    <path d="M49,76.1c0,8.09,5.34,14.93,12.68,17.2,1.68.52,3.47.8,5.32.8,2.61,0,5.09-.56,7.33-1.57,6.29-2.79,10.67-9.1,10.67-16.43,0-9.94-8.06-18-18-18s-18,8.06-18,18ZM57,76.1c0-5.52,4.48-10,10-10s10,4.48,10,10c0,5.52-4.48,10-10,10s-10-4.48-10-10Z"/>
    <path d="M20,115.1c0,9.94,8.06,18,18,18,1.59,0,3.12-.21,4.59-.59,3.89-1.02,7.27-3.32,9.65-6.41,2.36-3.04,3.76-6.86,3.76-11,0-9.94-8.06-18-18-18s-18,8.06-18,18ZM28,115.1c0-5.52,4.48-10,10-10s10,4.48,10,10-4.48,10-10,10-10-4.48-10-10Z"/>
    <path d="M0,154.1c0,9.94,8.06,18,18,18,7.08,0,13.21-4.09,16.15-10.05,1.18-2.39,1.85-5.09,1.85-7.95,0-1.51-.19-2.98-.54-4.39-1.96-7.82-9.03-13.61-17.46-13.61-9.94,0-18,8.06-18,18ZM8,154.1c0-5.52,4.48-10,10-10s10,4.48,10,10-4.48,10-10,10-10-4.48-10-10Z"/>
    <path d="M3,216.1c0,9.94,8.06,18,18,18,7.87,0,14.57-5.06,17.01-12.1.64-1.85.99-3.83.99-5.9,0-1.7-.24-3.35-.69-4.91-2.13-7.56-9.07-13.09-17.31-13.09-9.94,0-18,8.06-18,18ZM11,216.1c0-5.52,4.48-10,10-10s10,4.48,10,10-4.48,10-10,10-10-4.48-10-10Z"/>
    <path d="M18,282.1c0,9.94,8.06,18,18,18,9.94,0,18-8.06,18-18,0-4.28-1.5-8.2-3.99-11.29l5.41-6.39c.76-.9,1.88-1.42,3.06-1.42h72.55c1.01,0,1.98.38,2.72,1.07l21.09,19.56c.82.76,1.28,1.82,1.28,2.94v.43s12.49,0,12.49,0l1.5-190c.01-.97-.34-1.9-.97-2.64l-12.05-13.96c-.63-.73-.97-1.66-.97-2.62v-43.42c-2.28,1.05-4.82,1.64-7.5,1.64-1.92,0-3.77-.3-5.5-.86v46.75c0,1.03.4,2.03,1.11,2.77l10.78,11.24c.71.74,1.11,1.74,1.11,2.77v54.6c0,2.36-2.03,4.21-4.38,3.98l-9.5-.9c-2.05-.2-3.62-1.92-3.62-3.99v-43.2c0-1.35-.68-2.61-1.81-3.34l-28.44-18.67c-1.09-.72-1.77-1.93-1.8-3.25l-.66-27.18c-2.13.89-4.46,1.38-6.91,1.38-1.51,0-2.98-.19-4.38-.54v34.31c0,1.33.66,2.58,1.77,3.32l27.46,18.47c1.11.74,1.77,1.99,1.77,3.32v48.36c0,2.07,1.58,3.8,3.65,3.98l23.2,2.05c2.07.18,3.65,1.91,3.65,3.98v36.61c0,3.47-4.12,5.29-6.69,2.96l-41.5-37.73c-.83-.76-1.31-1.83-1.31-2.96v-36.54c0-1.08-.44-2.12-1.22-2.87l-29.56-28.64c-.78-.75-1.22-1.79-1.22-2.87v-9.31c0-.52-.1-1.02-.29-1.47-2.24,1.01-4.72,1.57-7.33,1.57-1.85,0-3.64-.28-5.32-.8-.04.23-.06.46-.06.7v12.31c0,1.08.44,2.12,1.21,2.87l31.53,30.6c.8.78,1.24,1.86,1.22,2.97l-.92,35.51c-.02,1.11.41,2.18,1.2,2.96l59.07,58.15c.76.76,1.19,1.78,1.19,2.86v14.47c0,3.49-4.17,5.31-6.72,2.93l-72.5-67.44c-.82-.76-1.28-1.82-1.28-2.93v-35.29c0-2.2-1.77-3.98-3.97-4l-6.17-.05c-1.23,0-2.39-.58-3.14-1.56l-17.1-22.26c-2.38,3.09-5.76,5.39-9.65,6.41l7.84,10.9c1.92,2.65,0,6.36-3.27,6.33l-4.66-.03h-.04c.35,1.41.54,2.88.54,4.39,0,2.86-.67,5.56-1.85,7.95.41.15.85.23,1.32.23h24.15c2.21,0,4,1.79,4,4v30.97c0,1.12.46,2.18,1.28,2.94l47.29,43.88c2.66,2.47.91,6.93-2.72,6.93h-33.42c-2.21,0-4-1.79-4-4v-31.81c0-2.21-1.79-4-4-4h-29.74c.45,1.56.69,3.21.69,4.91,0,2.07-.35,4.05-.99,5.9h17.68c2.18,0,3.96,1.75,4,3.93l.37,21c.04,2.24-1.76,4.07-4,4.07h-3.63c-1.15,0-2.24.49-3,1.35l-10.57,11.98c-.93-.15-1.89-.23-2.86-.23-9.94,0-18,8.06-18,18ZM26,282.1c0-5.52,4.48-10,10-10s10,4.48,10,10-4.48,10-10,10-10-4.48-10-10Z"/>
  </g>
</svg>